<svg width="160" height="160" viewBox="0 0 160 160" fill="none" xmlns="http://www.w3.org/2000/svg">
<circle cx="80" cy="80" r="74.5" stroke="#D1D5DA" stroke-opacity="0.3" stroke-width="11"/>
<mask id="path-2-inside-1_106_13" fill="white">
<path d="M160 80C160 90.5058 157.931 100.909 153.91 110.615C149.89 120.321 143.997 129.14 136.569 136.569C129.14 143.997 120.321 149.89 110.615 153.91C100.909 157.931 90.5057 160 80 160L80 149.147C89.0804 149.147 98.072 147.358 106.461 143.883C114.85 140.408 122.473 135.315 128.894 128.894C135.315 122.473 140.408 114.851 143.883 106.461C147.358 98.072 149.147 89.0805 149.147 80H160Z"/>
</mask>
<path d="M160 80C160 90.5058 157.931 100.909 153.91 110.615C149.89 120.321 143.997 129.14 136.569 136.569C129.14 143.997 120.321 149.89 110.615 153.91C100.909 157.931 90.5057 160 80 160L80 149.147C89.0804 149.147 98.072 147.358 106.461 143.883C114.85 140.408 122.473 135.315 128.894 128.894C135.315 122.473 140.408 114.851 143.883 106.461C147.358 98.072 149.147 89.0805 149.147 80H160Z" stroke="currentColor" stroke-width="22" mask="url(#path-2-inside-1_106_13)"/>
</svg>
