<svg width="22" height="22" viewBox="0 0 22 22" fill="none" xmlns="http://www.w3.org/2000/svg">
<path d="M14.6844 11C14.6844 13.0942 12.9997 14.7857 10.9291 14.7857C8.85843 14.7857 7.17377 13.0942 7.17377 11C7.17377 8.90585 8.85843 7.21429 10.9291 7.21429C12.9997 7.21429 14.6844 8.90585 14.6844 11Z" stroke="white"/>
<path d="M10.9291 7.42857C10.4634 7.42857 10.0023 7.52095 9.57206 7.70043C9.14182 7.87991 8.7509 8.14298 8.42162 8.47462C8.09233 8.80626 7.83113 9.19997 7.65292 9.63328C7.47471 10.0666 7.38299 10.531 7.38299 11C7.38299 11.469 7.47471 11.9334 7.65292 12.3667C7.83113 12.8 8.09233 13.1937 8.42162 13.5254C8.7509 13.857 9.14182 14.1201 9.57206 14.2996C10.0023 14.4791 10.4634 14.5714 10.9291 14.5714L10.9291 11V7.42857Z" fill="white"/>
<rect x="10.2198" y="1" width="1.41844" height="4.28571" rx="0.70922" fill="white"/>
<rect x="16.7447" y="11.7143" width="1.42857" height="4.25532" rx="0.714286" transform="rotate(-90 16.7447 11.7143)" fill="white"/>
<rect x="1" y="11.7143" width="1.42857" height="4.25532" rx="0.714286" transform="rotate(-90 1 11.7143)" fill="white"/>
<rect width="1.42351" height="4.27054" rx="0.711757" transform="matrix(0.704586 -0.709619 0.704586 0.709619 3.2695 4.72444)" fill="white"/>
<rect width="1.42351" height="4.27054" rx="0.711757" transform="matrix(-0.704586 -0.709619 0.704586 -0.709619 15.4781 7.75489)" fill="white"/>
<rect width="1.42351" height="4.27054" rx="0.711757" transform="matrix(-0.704586 -0.709619 0.704586 -0.709619 4.27249 18.3263)" fill="white"/>
<rect width="1.42351" height="4.27054" rx="0.711757" transform="matrix(0.704586 -0.709619 0.704586 0.709619 14.4752 15.2959)" fill="white"/>
<rect x="10.2198" y="16.7143" width="1.41844" height="4.28571" rx="0.70922" fill="white"/>
</svg>
