<svg width="50" height="50" viewBox="0 0 50 50" fill="none" xmlns="http://www.w3.org/2000/svg">
<path d="M26.732 5L43.1865 33.5C43.9563 34.8333 42.9941 36.5 41.4545 36.5H8.54552C7.00592 36.5 6.04367 34.8333 6.81347 33.5L23.268 5C24.0378 3.66667 25.9622 3.66667 26.732 5Z" stroke="currentColor" stroke-width="2"/>
<path d="M27.0566 31.0664C27.0566 31.6172 26.875 32.1035 26.5117 32.5254C26.1484 32.9473 25.6504 33.1582 25.0176 33.1582C24.3848 33.1582 23.8809 32.9531 23.5059 32.543C23.1309 32.1211 22.9434 31.6348 22.9434 31.084C22.9434 30.5332 23.1133 30.0645 23.4531 29.6777C23.8047 29.2793 24.3086 29.0801 24.9648 29.0801C25.6211 29.0801 26.1309 29.2734 26.4941 29.6602C26.8691 30.0469 27.0566 30.5156 27.0566 31.0664ZM27.1445 12.8906L25.791 23.209C25.6973 24.1113 25.5977 24.6738 25.4922 24.8965C25.3867 25.1074 25.2578 25.2129 25.1055 25.2129C24.9648 25.2129 24.8594 25.1953 24.7891 25.1602C24.7305 25.125 24.6777 25.0664 24.6309 24.9844C24.584 24.8906 24.543 24.8086 24.5078 24.7383C24.4844 24.6562 24.4609 24.5449 24.4375 24.4043C24.4258 24.252 24.4141 24.1289 24.4023 24.0352C24.3906 23.9414 24.373 23.8066 24.3496 23.6309C24.3379 23.4434 24.3262 23.3027 24.3145 23.209L22.9609 12.8906C22.9375 12.5859 22.9258 12.3633 22.9258 12.2227C22.9258 11.4023 23.1367 10.7637 23.5586 10.3066C23.9805 9.84961 24.4785 9.62109 25.0527 9.62109C25.627 9.62109 26.125 9.85547 26.5469 10.3242C26.9688 10.7812 27.1797 11.4141 27.1797 12.2227C27.1797 12.5156 27.168 12.7383 27.1445 12.8906Z" fill="currentColor"/>
</svg>
